<?xml version="1.0" encoding="UTF-8"?>
<svg version="1.1" viewBox="0 0 24 24" xmlns="http://www.w3.org/2000/svg" xmlns:xlink="http://www.w3.org/1999/xlink">
    <!--Generated by IJSVG (https://github.com/iconjar/IJSVG)-->
    <g fill="#FFF">
        <path d="M8.543,23.1l0.749,-3.746l-6.88641e-08,3.49677e-07c0.0770371,-0.391178 0.270085,-0.750094 0.554,-1.03l7.623,-7.623l6.00555e-08,-5.99321e-08c0.689059,-0.687643 1.60133,-1.10618 2.572,-1.18l1.84874e-08,-1.48365e-09c0.260411,-0.0208985 0.460837,-0.238753 0.46,-0.5v-3.021l4.16563e-08,-0.000408197c0,-0.950537 -0.669029,-1.76976 -1.6004,-1.95967l-2.99687e-08,-6.11729e-09c-0.232465,-0.0474514 -0.399574,-0.251741 -0.4,-0.489v-1.55092v0c0,-1.10457 -0.895431,-2 -2,-2h-12.5006l-1.31134e-07,3.55271e-15c-1.65685,7.24234e-08 -3,1.34315 -3,3c0,0 0,3.55271e-15 0,3.55271e-15v18l3.37508e-14,-4.52987e-07c-2.50178e-07,1.65685 1.34315,3 3,3h4h-2.18557e-08c0.276142,1.20706e-08 0.5,-0.223858 0.5,-0.5l-1.13678e-08,-6.33046e-06c-0.000241294,-0.1345 0.0141778,-0.268625 0.0430018,-0.4Zm-5.543,-20.1l1.06581e-14,1.50996e-07c-8.33927e-08,-0.552285 0.447715,-1 1,-1h12.25l-1.09278e-08,4.44089e-16c0.138071,-6.03528e-09 0.25,0.111929 0.25,0.25v1.5v0c0,0.138071 -0.111929,0.25 -0.25,0.25h-12.25l-4.37114e-08,-1.33227e-15c-0.552285,-2.41411e-08 -1,-0.447715 -1,-1Z"></path>
        <path d="M10.638,23.98l3.1,-0.884l-1.87639e-08,5.34494e-09c0.265578,-0.0756506 0.419544,-0.352271 0.343894,-0.617849c-0.0232598,-0.0816555 -0.0669298,-0.156043 -0.126894,-0.216151l-2.215,-2.215l5.33045e-09,5.34784e-09c-0.194944,-0.19558 -0.511526,-0.196095 -0.707106,-0.00115148c-0.0604731,0.0602765 -0.104503,0.135035 -0.127894,0.217151l-0.885,3.1l9.93196e-09,-3.51097e-08c-0.0751665,0.265715 0.0793038,0.542055 0.345019,0.617221c0.0892527,0.0252481 0.183769,0.0251716 0.272981,-0.000221022Z"></path>
        <path d="M12.054,18.24l2.65405e-08,-2.65485e-08c-0.195191,0.19525 -0.195191,0.51175 -5.30811e-08,0.707l3,3l-3.07653e-08,-3.0756e-08c0.19525,0.195191 0.51175,0.195191 0.707,6.15119e-08l5.011,-5.01l2.23014e-08,-2.2245e-08c0.195509,-0.195015 0.195909,-0.511597 0.000893739,-0.707106c-0.000297551,-0.000298304 -0.000595479,-0.000596232 -0.000893784,-0.000893784l-3,-3l2.09286e-08,2.09223e-08c-0.19525,-0.195191 -0.51175,-0.195191 -0.707,-4.18445e-08Z"></path>
        <path d="M18.333,12.168l7.19839e-09,-4.02146e-06c-0.000238064,0.132699 0.052284,0.26005 0.145997,0.354001l3,3l1.71806e-08,1.43833e-08c0.105172,0.088048 0.240096,0.132426 0.377,0.124l2.83447e-08,-1.7512e-09c0.142196,-0.00878516 0.276276,-0.0692457 0.377,-0.17l-1.06739e-07,1.06963e-07c1.02214,-1.02429 1.02214,-2.68271 2.13477e-07,-3.707l7.34814e-08,7.17381e-08c-1.0488,-1.02392 -2.72906,-1.00377 -3.753,0.0449999l-3.17722e-08,3.16734e-08c-0.0940804,0.093788 -0.146971,0.22116 -0.146997,0.354003Z"></path>
    </g>
</svg>