<?xml version="1.0" encoding="UTF-8" standalone="no"?>
<!DOCTYPE svg PUBLIC "-//W3C//DTD SVG 1.1//EN" "http://www.w3.org/Graphics/SVG/1.1/DTD/svg11.dtd">
<svg width="100%" height="100%" viewBox="0 0 24 24" version="1.1" xmlns="http://www.w3.org/2000/svg" xmlns:xlink="http://www.w3.org/1999/xlink" xml:space="preserve" xmlns:serif="http://www.serif.com/" style="fill-rule:evenodd;clip-rule:evenodd;stroke-linejoin:round;stroke-miterlimit:2;">
    <g>
        <path d="M12,13C11.4,13 11,12.6 11,12L11,5C11,4.4 11.4,4 12,4C12.6,4 13,4.4 13,5L13,12C13,12.6 12.6,13 12,13Z" style="fill:white;fill-rule:nonzero;"/>
        <path d="M16,17C15.7,17 15.5,16.9 15.3,16.7L11.3,12.7C10.9,12.3 10.9,11.7 11.3,11.3C11.7,10.9 12.3,10.9 12.7,11.3L16.7,15.3C17.1,15.7 17.1,16.3 16.7,16.7C16.5,16.9 16.3,17 16,17Z" style="fill:white;fill-rule:nonzero;"/>
    </g>
</svg>
