<?xml version="1.0" encoding="UTF-8"?><svg version="1.1" viewBox="0 0 24 24" xmlns="http://www.w3.org/2000/svg" xmlns:xlink="http://www.w3.org/1999/xlink"><g fill="#FFF"><path d="M22 4.917c-1.104 0-2 .897-2 2 0 .891.59 1.639 1.396 1.897 -.365 1.202-1.556 4.186-4.396 4.186 -2.944 0-4.107-4.549-4.416-6.076 1.096-.265 1.916-1.248 1.916-2.424 0-1.379-1.122-2.5-2.5-2.5 -1.379 0-2.5 1.121-2.5 2.5 0 1.176.818 2.159 1.915 2.424 -.308 1.527-1.472 6.076-4.415 6.076 -2.852 0-4.029-3.062-4.384-4.274 .8-.263 1.384-1.007 1.384-1.894 0-1.103-.898-2-2-2 -1.104 0-2 .897-2 2 0 .956.675 1.755 1.572 1.952l1.936 10.804c.043.239.25.412.492.412h16c.241 0 .448-.173.492-.41l1.955-10.728c.887-.205 1.553-.997 1.553-1.945 0-1.104-.897-2-2-2Z"></path><path d="M20 21h-16c-.276 0-.5.224-.5.5 0 .276.224.5.5.5h16c.275 0 .5-.224.5-.5 0-.276-.225-.5-.5-.5Z"></path></g><rect width="24" height="24" fill="none"></rect></svg>