<?xml version="1.0" encoding="UTF-8"?>
<svg version="1.1" viewBox="0 0 24 24" xmlns="http://www.w3.org/2000/svg" xmlns:xlink="http://www.w3.org/1999/xlink">
    <!--Generated by IJSVG (https://github.com/iconjar/IJSVG)-->
    <g fill="#FFF">
        <path d="M12.058,19.588c0.07,-0.245 0.202,-0.468 0.382,-0.648l4.56,-4.561v-8.879c0,-0.133 -0.053,-0.26 -0.146,-0.353l-5,-5c-0.094,-0.094 -0.222,-0.147 -0.354,-0.147h-11c-0.276,0 -0.5,0.224 -0.5,0.5v21c0,0.276 0.224,0.5 0.5,0.5h10.868l0.69,-2.412Zm-1.058,-18.588l5,5h-5v-5Z"></path>
        <path d="M14.111,16.234h6.78v4.535h-6.78Z" transform="matrix(0.7071,-0.7071,0.7071,0.7071,-7.9567,17.7936)"></path>
        <path d="M23.855,14.646l-2.5,-2.5c-0.195,-0.195 -0.512,-0.195 -0.707,0l-1.647,1.647l3.207,3.207l1.647,-1.646c0.196,-0.195 0.196,-0.512 0,-0.708Z"></path>
        <path d="M15.848,23.067l-2.917,-2.917l-0.911,3.226c-0.046,0.168 -0.011,0.353 0.121,0.484c0.131,0.131 0.316,0.166 0.483,0.122l3.224,-0.915Z"></path>
    </g>
    <path fill="none" d="M0,0h24v24h-24Z"></path>
</svg>