<?xml version="1.0" encoding="UTF-8"?>
<svg version="1.1" viewBox="0 0 24 24" xmlns="http://www.w3.org/2000/svg" xmlns:xlink="http://www.w3.org/1999/xlink">
    <!--Generated by IJSVG (https://github.com/iconjar/IJSVG)-->
    <g fill="#FFF">
        <path d="M15,12.5c0,-0.277 0.224,-0.5 0.5,-0.5h1.5v-6.5c0,-0.133 -0.053,-0.26 -0.146,-0.353l-5,-5c-0.094,-0.095 -0.222,-0.147 -0.354,-0.147h-11c-0.276,0 -0.5,0.223 -0.5,0.5v21c0,0.276 0.224,0.5 0.5,0.5h11.5v-3.5c0,-0.277 0.224,-0.5 0.5,-0.5h2.5v-5.5Zm-4,-6.5v-5l5,5h-5Z"></path>
        <path d="M23.5,19h-2h-2c-0.276,0 -0.5,0.223 -0.5,0.5v4c0,0.276 0.224,0.5 0.5,0.5h4c0.276,0 0.5,-0.224 0.5,-0.5v-4c0,-0.277 -0.224,-0.5 -0.5,-0.5Z"></path>
        <path d="M17.5,19h-2h-2h-0.5v0.5v4c0,0.276 0.224,0.5 0.5,0.5h4c0.276,0 0.5,-0.224 0.5,-0.5v-4c0,-0.277 -0.224,-0.5 -0.5,-0.5Z"></path>
        <path d="M21,17.5v-4c0,-0.277 -0.224,-0.5 -0.5,-0.5h-4h-0.5v0.5v4v0.5h0.5h2h2c0.276,0 0.5,-0.224 0.5,-0.5Z"></path>
    </g>
    <path fill="none" d="M0,0h24v24h-24Z"></path>
</svg>