<?xml version="1.0" encoding="UTF-8"?>
<svg version="1.1" viewBox="0 0 24 24" xmlns="http://www.w3.org/2000/svg" xmlns:xlink="http://www.w3.org/1999/xlink">
    <!--Generated by IJSVG (https://github.com/iconjar/IJSVG)-->
    <g fill="#FFF">
        <path d="M12,18.901c-0.576,0.192 -1.256,0.035 -1.652,-0.44c-0.529,-0.636 -0.443,-1.584 0.191,-2.113l6.001,-5c0.137,-0.113 0.294,-0.198 0.46,-0.254v-5.594c0,-0.133 -0.053,-0.26 -0.146,-0.353l-5,-5c-0.094,-0.094 -0.222,-0.147 -0.354,-0.147h-11c-0.276,0 -0.5,0.224 -0.5,0.5v21c0,0.276 0.224,0.5 0.5,0.5h11.5v-3.099Zm-1,-17.901l5,5h-5v-5Z"></path>
        <path d="M17.5,14.453l-4.5,3.75v5.297c0,0.276 0.224,0.5 0.5,0.5h8c0.276,0 0.5,-0.224 0.5,-0.5v-5.297l-4.5,-3.75Z"></path>
        <path d="M23.18,17.885l-5.68,-4.734l-5.68,4.734c-0.213,0.176 -0.528,0.147 -0.705,-0.065c-0.177,-0.212 -0.148,-0.528 0.064,-0.705l6,-5c0.185,-0.154 0.455,-0.154 0.641,0l6,5c0.212,0.177 0.241,0.492 0.064,0.705c-0.176,0.212 -0.49,0.242 -0.704,0.065Z"></path>
    </g>
    <path fill="none" d="M0,0h24v24h-24Z"></path>
</svg>