<?xml version="1.0" encoding="UTF-8"?>
<svg version="1.1" viewBox="0 0 24 24" xmlns="http://www.w3.org/2000/svg" xmlns:xlink="http://www.w3.org/1999/xlink">
    <!--Generated by IJSVG (https://github.com/iconjar/IJSVG)-->
    <g fill="#FFF">
        <path d="M12,15.5c0,-0.827 0.673,-1.5 1.5,-1.5h0.528c0.193,-1.734 1.379,-3.165 2.972,-3.731v-4.769c0,-0.133 -0.053,-0.26 -0.146,-0.353l-5,-5c-0.094,-0.094 -0.222,-0.147 -0.354,-0.147h-11c-0.276,0 -0.5,0.224 -0.5,0.5v21c0,0.276 0.224,0.5 0.5,0.5h11.5v-6.5Zm-1,-14.5l5,5h-5v-5Z"></path>
        <path d="M23.5,15h-1.5v-0.5c0,-1.929 -1.57,-3.5 -3.5,-3.5c-1.93,0 -3.5,1.571 -3.5,3.5v0.5h-1.5c-0.276,0 -0.5,0.224 -0.5,0.5v8c0,0.276 0.224,0.5 0.5,0.5h10c0.276,0 0.5,-0.224 0.5,-0.5v-8c0,-0.276 -0.224,-0.5 -0.5,-0.5Zm-4.5,4.348v1.652c0,0.276 -0.224,0.5 -0.5,0.5c-0.276,0 -0.5,-0.224 -0.5,-0.5v-1.652c-0.293,-0.175 -0.5,-0.483 -0.5,-0.848c0,-0.551 0.448,-1 1,-1c0.552,0 1,0.449 1,1c0,0.365 -0.207,0.672 -0.5,0.848Zm2,-4.348h-5v-0.5c0,-1.378 1.121,-2.5 2.5,-2.5c1.379,0 2.5,1.122 2.5,2.5v0.5Z"></path>
    </g>
    <path fill="none" d="M0,0h24v24h-24Z"></path>
</svg>