<?xml version="1.0" encoding="UTF-8"?>
<svg version="1.1" viewBox="0 0 24 24" xmlns="http://www.w3.org/2000/svg" xmlns:xlink="http://www.w3.org/1999/xlink">
    <!--Generated by IJSVG (https://github.com/iconjar/IJSVG)-->
    <path d="M23.5,6h-2.5v-1.5c0,-0.276 -0.224,-0.5 -0.5,-0.5h-12.5v-1.5c0,-0.276 -0.224,-0.5 -0.5,-0.5h-7c-0.276,0 -0.5,0.224 -0.5,0.5v16.5c0,1.654 1.346,3 3,3h17.5c1.93,0 3.5,-1.57 3.5,-3.5v-12c0,-0.276 -0.224,-0.5 -0.5,-0.5Zm-3.5,0h-14.5c-0.276,0 -0.5,0.224 -0.5,0.5v12.5c0,1.103 -0.897,2 -2,2c-1.102,0 -2,-0.897 -2,-2v-16h6v1.5c0,0.276 0.224,0.5 0.5,0.5h12.5v1Z" fill="#FFF"></path>
    <path fill="none" d="M0,0h24v24h-24Z"></path>
</svg>