<?xml version="1.0" encoding="UTF-8"?>
<svg version="1.1" viewBox="0 0 24 24" xmlns="http://www.w3.org/2000/svg" xmlns:xlink="http://www.w3.org/1999/xlink">
    <!--Generated by IJSVG (https://github.com/iconjar/IJSVG)-->
    <g fill="#FFF">
        <path d="M19.94,11.44c0.292,-0.294 0.676,-0.44 1.06,-0.44v-6.5c0,-0.275 -0.224,-0.5 -0.5,-0.5h-1.5v-1.5c0,-0.275 -0.224,-0.5 -0.5,-0.5h-12.5v-1.5c0,-0.275 -0.224,-0.5 -0.5,-0.5h-5c-0.276,0 -0.5,0.225 -0.5,0.5v15.5c0,1.103 0.897,2 2,2h11.379l6.561,-6.56Zm-16.94,-6.94v11.5c0,0.551 -0.449,1 -1,1c-0.551,0 -1,-0.449 -1,-1v-15h4v1.5c0,0.277 0.224,0.5 0.5,0.5h12.5v1h-14.5c-0.276,0 -0.5,0.225 -0.5,0.5Z"></path>
        <path d="M14.111,16.234h6.78v4.535h-6.78Z" transform="matrix(0.7071,-0.7071,0.7071,0.7071,-7.9567,17.7936)"></path>
        <path d="M23.855,14.646l-2.5,-2.5c-0.195,-0.195 -0.512,-0.195 -0.707,0l-1.647,1.647l3.207,3.207l1.647,-1.646c0.196,-0.195 0.196,-0.512 0,-0.708Z"></path>
        <path d="M15.848,23.067l-2.917,-2.917l-0.911,3.226c-0.046,0.168 -0.011,0.353 0.121,0.484c0.131,0.131 0.316,0.166 0.483,0.122l3.224,-0.915Z"></path>
    </g>
    <path fill="none" d="M0,0h24v24h-24Z"></path>
</svg>