<?xml version="1.0" encoding="UTF-8"?>
<svg version="1.1" viewBox="0 0 24 24" xmlns="http://www.w3.org/2000/svg" xmlns:xlink="http://www.w3.org/1999/xlink">
    <!--Generated by IJSVG (https://github.com/iconjar/IJSVG)-->
    <g fill="#FFF">
        <path d="M12,16.909c-0.575,0.204 -1.239,0.047 -1.652,-0.449c-0.53,-0.637 -0.444,-1.582 0.192,-2.113l6,-5c0.557,-0.463 1.364,-0.463 1.921,0l2.539,2.117v-6.964c0,-0.275 -0.224,-0.5 -0.5,-0.5h-1.5v-1.5c0,-0.275 -0.224,-0.5 -0.5,-0.5h-12.5v-1.5c0,-0.275 -0.224,-0.5 -0.5,-0.5h-5c-0.276,0 -0.5,0.225 -0.5,0.5v15.5c0,1.103 0.897,2 2,2h10v-1.091Zm-9,-12.409v11.5c0,0.551 -0.449,1 -1,1c-0.551,0 -1,-0.449 -1,-1v-15h4v1.5c0,0.277 0.224,0.5 0.5,0.5h12.5v1h-14.5c-0.276,0 -0.5,0.225 -0.5,0.5Z"></path>
        <path d="M17.5,12.453l-4.5,3.75v5.297c0,0.276 0.224,0.5 0.5,0.5h8c0.276,0 0.5,-0.224 0.5,-0.5v-5.297l-4.5,-3.75Z"></path>
        <path d="M23.18,15.884l-5.68,-4.733l-5.68,4.733c-0.213,0.176 -0.527,0.148 -0.705,-0.064c-0.177,-0.212 -0.148,-0.528 0.064,-0.705l6,-5c0.185,-0.154 0.455,-0.154 0.641,0l6,5c0.212,0.177 0.241,0.492 0.064,0.705c-0.176,0.212 -0.49,0.242 -0.704,0.064Z"></path>
    </g>
    <path fill="none" d="M0,0h24v24h-24Z"></path>
</svg>