<?xml version="1.0" encoding="UTF-8"?>
<svg version="1.1" viewBox="0 0 24 24" xmlns="http://www.w3.org/2000/svg" xmlns:xlink="http://www.w3.org/1999/xlink">
    <!--Generated by IJSVG (https://github.com/iconjar/IJSVG)-->
    <g fill="#FFF">
        <path d="M21,14.707l-6.293,6.293c0.77,0.616 1.733,1 2.793,1c2.481,0 4.5,-2.018 4.5,-4.5c0,-1.06 -0.384,-2.023 -1,-2.793Z"></path>
        <path d="M20.293,14c-0.77,-0.615 -1.733,-1 -2.793,-1c-2.481,0 -4.5,2.019 -4.5,4.5c0,1.06 0.384,2.023 1,2.793l6.293,-6.293Z"></path>
        <path d="M17.5,11c-3.584,0 -6.5,2.915 -6.5,6.5c0,3.584 2.916,6.5 6.5,6.5c3.584,0 6.5,-2.916 6.5,-6.5c0,-3.585 -2.916,-6.5 -6.5,-6.5Zm0,12c-3.033,0 -5.5,-2.467 -5.5,-5.5c0,-3.033 2.467,-5.5 5.5,-5.5c3.033,0 5.5,2.467 5.5,5.5c0,3.033 -2.467,5.5 -5.5,5.5Z"></path>
        <path d="M17.5,10c1.264,0 2.454,0.318 3.5,0.872v-6.372c0,-0.275 -0.224,-0.5 -0.5,-0.5h-1.5v-1.5c0,-0.275 -0.224,-0.5 -0.5,-0.5h-12.5v-1.5c0,-0.275 -0.224,-0.5 -0.5,-0.5h-5c-0.276,0 -0.5,0.225 -0.5,0.5v15.5c0,1.103 0.897,2 2,2h8.025c-0.298,-4.393 3.204,-8 7.475,-8Zm-14.5,-5.5v11.5c0,0.551 -0.449,1 -1,1c-0.551,0 -1,-0.449 -1,-1v-15h4v1.5c0,0.277 0.224,0.5 0.5,0.5h12.5v1h-14.5c-0.276,0 -0.5,0.225 -0.5,0.5Z"></path>
    </g>
    <path fill="none" d="M0,0h24v24h-24Z"></path>
</svg>