<?xml version="1.0" encoding="UTF-8"?>
<svg version="1.1" viewBox="0 0 24 24" xmlns="http://www.w3.org/2000/svg" xmlns:xlink="http://www.w3.org/1999/xlink">
    <!--Generated by IJSVG (https://github.com/iconjar/IJSVG)-->
    <g fill="#FFF">
        <path d="M17.5,11c-3.584,0 -6.5,2.915 -6.5,6.5c0,3.584 2.916,6.5 6.5,6.5c3.584,0 6.5,-2.916 6.5,-6.5c0,-3.585 -2.916,-6.5 -6.5,-6.5Zm4.097,4.9l-4.096,4.357c-0.198,0.209 -0.521,0.203 -0.712,0.017l-2.926,-2.841c-0.197,-0.19 -0.203,-0.509 -0.01,-0.706c0.191,-0.198 0.508,-0.203 0.707,-0.011l2.561,2.485l3.747,-3.987c0.188,-0.201 0.507,-0.211 0.706,-0.021c0.201,0.19 0.211,0.506 0.023,0.707Z"></path>
        <path d="M17.5,10c1.264,0 2.454,0.318 3.5,0.872v-6.372c0,-0.275 -0.224,-0.5 -0.5,-0.5h-1.5v-1.5c0,-0.275 -0.224,-0.5 -0.5,-0.5h-12.5v-1.5c0,-0.275 -0.224,-0.5 -0.5,-0.5h-5c-0.276,0 -0.5,0.225 -0.5,0.5v15.5c0,1.103 0.897,2 2,2h8.025c-0.298,-4.393 3.204,-8 7.475,-8Zm-14.5,-5.5v11.5c0,0.551 -0.449,1 -1,1c-0.551,0 -1,-0.449 -1,-1v-15h4v1.5c0,0.277 0.224,0.5 0.5,0.5h12.5v1h-14.5c-0.276,0 -0.5,0.225 -0.5,0.5Z"></path>
    </g>
    <path fill="none" d="M0,0h24v24h-24Z"></path>
</svg>