<?xml version="1.0" encoding="UTF-8"?>
<svg version="1.1" viewBox="0 0 24 24" xmlns="http://www.w3.org/2000/svg" xmlns:xlink="http://www.w3.org/1999/xlink">
    <!--Generated by IJSVG (https://github.com/iconjar/IJSVG)-->
    <path d="M23.707,11.293l-3.134,-3.134l1.10064e-08,1.09975e-08c-0.0469507,-0.0469128 -0.0732291,-0.110629 -0.073,-0.177v-5.982v0c0,-0.552285 -0.447715,-1 -1,-1h-3h-4.37114e-08c-0.552285,2.41411e-08 -1,0.447715 -1,1c0,0 0,0 0,0v0.482l-2.18898e-09,-1.22179e-06c0.000247708,0.138071 -0.11148,0.2502 -0.249551,0.250448c-0.0665687,0.000119428 -0.130436,-0.0263154 -0.177448,-0.073446l-2.366,-2.366l4.18572e-08,4.18445e-08c-0.3905,-0.390382 -1.0235,-0.390382 -1.414,-8.3689e-08l-11,11l-1.15401e-08,1.15436e-08c-0.390465,0.390583 -0.39037,1.02375 0.00021344,1.41421c0.187475,0.187419 0.441696,0.29273 0.706787,0.292786h1.25h-1.09278e-08c0.138071,-6.03528e-09 0.25,0.111929 0.25,0.25v9.75l1.06581e-14,1.50996e-07c8.33927e-08,0.552285 0.447715,1 1,1h5.75h-1.09278e-08c0.138071,6.03528e-09 0.25,-0.111929 0.25,-0.25v-4.75l2.84217e-14,3.77489e-07c-2.08482e-07,-1.38071 1.11929,-2.5 2.5,-2.5c1.38071,-2.08482e-07 2.5,1.11929 2.5,2.5c0,0 0,3.55271e-15 0,3.55271e-15v4.75l3.55271e-15,3.7749e-08c2.08482e-08,0.138071 0.111929,0.25 0.25,0.25h5.75h-4.37114e-08c0.552285,2.41411e-08 1,-0.447715 1,-1v-9.75l3.55271e-15,3.7749e-08c-2.08482e-08,-0.138071 0.111929,-0.25 0.25,-0.25h1.25l5.58728e-08,-1.19318e-11c0.552285,-0.000117957 0.999904,-0.447929 0.999786,-1.00021c-5.66178e-05,-0.26509 -0.105368,-0.519311 -0.292786,-0.706786Z" fill="#FFF"></path>
</svg>