<?xml version="1.0" encoding="UTF-8"?>
<svg version="1.1" viewBox="0 0 24 24" xmlns="http://www.w3.org/2000/svg" xmlns:xlink="http://www.w3.org/1999/xlink">
    <!--Generated by IJSVG (https://github.com/iconjar/IJSVG)-->
    <g fill="#FFF">
        <path d="M14.1213,8.21134c1.17157,0.585786 1.17157,1.53553 0,2.12132c-1.17157,0.585786 -3.07107,0.585786 -4.24264,0c-1.17157,-0.585786 -1.17157,-1.53553 0,-2.12132c1.17157,-0.585786 3.07107,-0.585786 4.24264,0"></path>
        <path d="M14.1213,2.71134c1.17157,0.585786 1.17157,1.53553 0,2.12132c-1.17157,0.585786 -3.07107,0.585786 -4.24264,0c-1.17157,-0.585786 -1.17157,-1.53553 0,-2.12132c1.17157,-0.585786 3.07107,-0.585786 4.24264,-4.44089e-16"></path>
        <path d="M20.6213,5.21134c1.17157,0.585786 1.17157,1.53553 0,2.12132c-1.17157,0.585786 -3.07107,0.585786 -4.24264,0c-1.17157,-0.585786 -1.17157,-1.53553 0,-2.12132c1.17157,-0.585786 3.07107,-0.585786 4.24264,0"></path>
        <path d="M8.12132,5.21134c1.17157,0.585786 1.17157,1.53553 0,2.12132c-1.17157,0.585786 -3.07107,0.585786 -4.24264,0c-1.17157,-0.585786 -1.17157,-1.53553 -8.88178e-16,-2.12132c1.17157,-0.585786 3.07107,-0.585786 4.24264,0"></path>
        <path d="M0.9,17.492l9.649,4.2l1.93673e-08,8.45257e-09c0.253089,0.110457 0.547801,-0.00516885 0.658258,-0.258258c0.027497,-0.0630035 0.041707,-0.131 0.0417424,-0.199743v-8l1.44047e-08,-9.76842e-06c0.000291622,-0.199081 -0.117547,-0.379366 -0.300009,-0.458994l-10.249,-4.462l1.62231e-09,7.08036e-10c-0.253089,-0.110457 -0.547801,0.00516824 -0.658258,0.258257c-0.0276319,0.0633124 -0.0418447,0.131664 -0.0417421,0.200743v7.344l-5.4731e-08,6.88358e-05c-0.00046088,0.596879 0.353004,1.13723 0.900063,1.37596Z"></path>
        <path d="M12.75,13.228v8l-6.74384e-09,-1.34436e-05c0.000134811,0.276142 0.224102,0.499891 0.500244,0.499756c0.0687424,-3.35596e-05 0.136739,-0.0142417 0.199744,-0.041737l9.65,-4.2l-1.25973e-07,5.49792e-08c0.546716,-0.238606 0.90009,-0.778484 0.9,-1.375v-7.33901l1.51191e-08,-1.02496e-05c0.000404505,-0.276142 -0.223125,-0.500327 -0.499267,-0.500732c-0.0690795,-0.000101191 -0.137431,0.014113 -0.200742,0.0417462l-10.25,4.456l2.30392e-08,-1.00564e-08c-0.182451,0.079638 -0.300276,0.259922 -0.299978,0.458996Z"></path>
    </g>
</svg>