<?xml version="1.0" encoding="UTF-8"?>
<svg version="1.1" viewBox="0 0 24 24" xmlns="http://www.w3.org/2000/svg" xmlns:xlink="http://www.w3.org/1999/xlink">
    <!--Generated by IJSVG (https://github.com/iconjar/IJSVG)-->
    <g fill="#FFF">
        <path d="M21.5,4h-6.293l-0.853,-0.853c-0.094,-0.094 -0.221,-0.147 -0.354,-0.147h-2.5c-0.276,0 -0.5,0.224 -0.5,0.5v8c0,0.276 0.224,0.5 0.5,0.5h10c0.276,0 0.5,-0.224 0.5,-0.5v-7c0,-0.276 -0.224,-0.5 -0.5,-0.5Z"></path>
        <path d="M21.5,15h-6.293l-0.853,-0.854c-0.094,-0.093 -0.221,-0.146 -0.354,-0.146h-2.5c-0.276,0 -0.5,0.224 -0.5,0.5v8c0,0.276 0.224,0.5 0.5,0.5h10c0.276,0 0.5,-0.224 0.5,-0.5v-7c0,-0.276 -0.224,-0.5 -0.5,-0.5Z"></path>
        <path d="M3.70711,0.292893c0.390524,0.390524 0.390524,1.02369 0,1.41421c-0.390524,0.390524 -1.02369,0.390524 -1.41421,0c-0.390524,-0.390524 -0.390524,-1.02369 -4.44089e-16,-1.41421c0.390524,-0.390524 1.02369,-0.390524 1.41421,-2.22045e-16"></path>
        <path d="M3.70711,3.29289c0.390524,0.390524 0.390524,1.02369 0,1.41421c-0.390524,0.390524 -1.02369,0.390524 -1.41421,0c-0.390524,-0.390524 -0.390524,-1.02369 -4.44089e-16,-1.41421c0.390524,-0.390524 1.02369,-0.390524 1.41421,-4.44089e-16"></path>
        <path d="M3.70711,6.29289c0.390524,0.390524 0.390524,1.02369 0,1.41421c-0.390524,0.390524 -1.02369,0.390524 -1.41421,0c-0.390524,-0.390524 -0.390524,-1.02369 -4.44089e-16,-1.41421c0.390524,-0.390524 1.02369,-0.390524 1.41421,0"></path>
        <path d="M6.70711,6.29289c0.390524,0.390524 0.390524,1.02369 0,1.41421c-0.390524,0.390524 -1.02369,0.390524 -1.41421,0c-0.390524,-0.390524 -0.390524,-1.02369 0,-1.41421c0.390524,-0.390524 1.02369,-0.390524 1.41421,0"></path>
        <path d="M9.70711,6.29289c0.390524,0.390524 0.390524,1.02369 0,1.41421c-0.390524,0.390524 -1.02369,0.390524 -1.41421,0c-0.390524,-0.390524 -0.390524,-1.02369 0,-1.41421c0.390524,-0.390524 1.02369,-0.390524 1.41421,0"></path>
        <path d="M6.70711,18.2929c0.390524,0.390524 0.390524,1.02369 0,1.41421c-0.390524,0.390524 -1.02369,0.390524 -1.41421,0c-0.390524,-0.390524 -0.390524,-1.02369 0,-1.41421c0.390524,-0.390524 1.02369,-0.390524 1.41421,0"></path>
        <path d="M9.70711,18.2929c0.390524,0.390524 0.390524,1.02369 0,1.41421c-0.390524,0.390524 -1.02369,0.390524 -1.41421,0c-0.390524,-0.390524 -0.390524,-1.02369 0,-1.41421c0.390524,-0.390524 1.02369,-0.390524 1.41421,0"></path>
        <path d="M3.70711,9.29289c0.390524,0.390524 0.390524,1.02369 0,1.41421c-0.390524,0.390524 -1.02369,0.390524 -1.41421,0c-0.390524,-0.390524 -0.390524,-1.02369 -4.44089e-16,-1.41421c0.390524,-0.390524 1.02369,-0.390524 1.41421,0"></path>
        <path d="M3.70711,12.2929c0.390524,0.390524 0.390524,1.02369 0,1.41421c-0.390524,0.390524 -1.02369,0.390524 -1.41421,0c-0.390524,-0.390524 -0.390524,-1.02369 -4.44089e-16,-1.41421c0.390524,-0.390524 1.02369,-0.390524 1.41421,0"></path>
        <path d="M3.70711,15.2929c0.390524,0.390524 0.390524,1.02369 0,1.41421c-0.390524,0.390524 -1.02369,0.390524 -1.41421,0c-0.390524,-0.390524 -0.390524,-1.02369 -4.44089e-16,-1.41421c0.390524,-0.390524 1.02369,-0.390524 1.41421,0"></path>
        <path d="M3.70711,18.2929c0.390524,0.390524 0.390524,1.02369 0,1.41421c-0.390524,0.390524 -1.02369,0.390524 -1.41421,0c-0.390524,-0.390524 -0.390524,-1.02369 -4.44089e-16,-1.41421c0.390524,-0.390524 1.02369,-0.390524 1.41421,0"></path>
    </g>
    <path fill="none" d="M0,0h24v24h-24Z"></path>
</svg>