<?xml version="1.0" encoding="UTF-8" standalone="no"?>
<!DOCTYPE svg PUBLIC "-//W3C//DTD SVG 1.1//EN" "http://www.w3.org/Graphics/SVG/1.1/DTD/svg11.dtd">
<svg width="100%" height="100%" viewBox="0 0 1280 955" version="1.1" xmlns="http://www.w3.org/2000/svg" xmlns:xlink="http://www.w3.org/1999/xlink" xml:space="preserve" xmlns:serif="http://www.serif.com/" style="fill-rule:evenodd;clip-rule:evenodd;stroke-linejoin:round;stroke-miterlimit:2;">
    <g transform="matrix(0.1,0,0,-0.1,0,955)">
        <path d="M1132,8417L-2,7283L222,7029C345,6889 1262,5846 2260,4710C3259,3574 4596,2052 5233,1327C5870,603 6395,10 6400,10C6405,10 6669,306 6987,668C7304,1029 8640,2549 9955,4045C11270,5541 12448,6882 12574,7024L12801,7283L12768,7315C12750,7333 12280,7792 11725,8336C11169,8880 10663,9376 10599,9438L10483,9550L6374,9550L2265,9550L1132,8417ZM3820,8847C3393,8654 3114,8466 2829,8181C2585,7936 2432,7717 2294,7417C2158,7121 2092,6814 2081,6429L2075,6203L1605,6737C1346,7031 1135,7276 1135,7281C1135,7286 1468,7643 1875,8075L2615,8859L3230,8859C3696,8859 3839,8856 3820,8847ZM9374,8700C9373,8561 9370,8537 9347,8464C9293,8301 9179,8175 9034,8117L8992,8101L8948,8168C8883,8265 8758,8420 8596,8602C8519,8690 8435,8784 8412,8811L8368,8860L8872,8858L9375,8855L9374,8700ZM6580,8796C7139,8720 7619,8510 7942,8202C8216,7940 8381,7616 8437,7230L8445,7175L9383,7172L10320,7170L10320,7995C10320,8449 10323,8820 10328,8819C10338,8818 11704,7299 11708,7285C11711,7272 10174,5519 10155,5514C10150,5512 10118,5561 10085,5622C9898,5971 9682,6183 9342,6354C9018,6516 8575,6628 8035,6683C7937,6694 7851,6695 7685,6688C7369,6675 6226,6676 5955,6689C5229,6724 4809,6783 4592,6881C4471,6935 4253,7099 4111,7240C3921,7430 3830,7603 3830,7776C3830,7921 3889,8041 4026,8170C4193,8328 4432,8455 4795,8578C5170,8705 5498,8778 5865,8814C5971,8824 6461,8812 6580,8796ZM2866,5364C3228,5228 3876,5124 4650,5080C4746,5075 5185,5059 5625,5045C6901,5005 7395,4977 7838,4919C8439,4841 8791,4712 8898,4532C8936,4466 8936,4377 8897,4303C8864,4238 8776,4148 8693,4092C8280,3813 7481,3657 6540,3672L6275,3676L6170,3781C5643,4310 5061,4525 4580,4370C4422,4319 4261,4219 4104,4075L4018,3997L3995,4021C3953,4066 2790,5390 2794,5390C2796,5390 2829,5378 2866,5364ZM8109,3183C8042,3098 6425,1270 6420,1272C6408,1276 4810,3094 4814,3098C4816,3100 4892,3094 4981,3086C5594,3027 6018,3007 6610,3006C7136,3005 7263,3010 7545,3046C7767,3074 7988,3129 8080,3180C8124,3204 8126,3204 8109,3183Z" style="fill:white;fill-rule:nonzero;"/>
    </g>
</svg>
