<?xml version="1.0" encoding="UTF-8"?>
<svg version="1.1" viewBox="0 0 24 24" xmlns="http://www.w3.org/2000/svg" xmlns:xlink="http://www.w3.org/1999/xlink">
    <!--Generated by IJSVG (https://github.com/iconjar/IJSVG)-->
    <g fill="#FFF">
        <path d="M12.038,21.26l-5.032e-07,1.8662e-07c-0.852217,0.316058 -1.75406,0.477259 -2.663,0.476h-3.27835e-08c-0.414214,1.81059e-08 -0.75,0.335786 -0.75,0.75c1.81059e-08,0.414214 0.335786,0.75 0.75,0.75l-1.61879e-08,9.47153e-12c0.959169,-0.000561148 1.91247,-0.149661 2.826,-0.442l1.6153e-09,-5.10227e-10c0.103781,-0.0327813 0.174246,-0.129165 0.174,-0.238v-1.056l1.05419e-08,-4.21978e-06c0.000343763,-0.138071 -0.111306,-0.250278 -0.249377,-0.250622c-0.0299087,-7.44655e-05 -0.0595881,0.00521853 -0.0876272,0.0156274Z"></path>
        <path d="M17.125,9.267v0.076l-4.66841e-09,-1.00182e-06c0.000645691,0.138622 0.113544,0.250474 0.252166,0.249828c0.0160619,-7.48153e-05 0.0320796,-0.00169121 0.0478326,-0.00482695l-8.07711e-08,1.75791e-08c0.310758,-0.0676338 0.627968,-0.101165 0.945999,-0.1h0.03l7.68269e-09,7.99361e-14c0.121113,1.24695e-06 0.219449,-0.0978881 0.22,-0.219l2.64272e-07,-5.73307e-05c0.00942515,-2.04607 -0.66691,-4.03631 -1.92103,-5.65299l4.10318e-08,5.36927e-08c-0.250838,-0.328237 -0.72027,-0.390981 -1.04851,-0.140144c-0.000498012,0.00038058 -0.000995546,0.000761785 -0.0014926,0.00114362l4.16052e-08,-3.16696e-08c-0.324758,0.247203 -0.387627,0.710869 -0.140424,1.03563c0.0034234,0.00449741 0.00689829,0.0089554 0.010424,0.0133731l2.71597e-07,3.5295e-07c1.04562,1.35882 1.61019,3.0265 1.60503,4.74104Z"></path>
        <path d="M6.361,21.129l5.36088e-08,2.2576e-08c-2.87313,-1.20994 -4.73992,-4.0255 -4.736,-7.143v-1.886v0c0,-0.414214 -0.335786,-0.75 -0.75,-0.75c-0.414214,0 -0.75,0.335786 -0.75,0.75v1.888l-3.48227e-07,0.000314037c-0.00406143,3.7197 2.22391,7.07875 5.65229,8.52181l3.44873e-09,1.4664e-09c0.0923274,0.0392576 0.191674,0.0593309 0.292,0.059l2.16049e-08,-5.56817e-11c0.414212,-0.00106754 0.749132,-0.337718 0.748065,-0.75193c-0.000772956,-0.299913 -0.180143,-0.57053 -0.456065,-0.68807Z"></path>
        <path d="M0.847,9.542h0.042l-4.31124e-08,5.05e-11c0.397944,-0.000466115 0.726246,-0.311651 0.748,-0.709l-4.06918e-08,7.28559e-07c0.238718,-4.2741 3.89708,-7.54542 8.17118,-7.3067c1.21252,0.0677221 2.39216,0.419407 3.44382,1.0267l-8.15969e-08,-4.30377e-08c0.366375,0.193242 0.820034,0.0528893 1.01328,-0.313486c0.18318,-0.347298 0.0674898,-0.777094 -0.265274,-0.985514l-5.56209e-09,-3.20887e-09c-4.42599,-2.55343 -10.0839,-1.03542 -12.6374,3.39057c-0.723742,1.2545 -1.14286,2.66139 -1.22363,4.10743l-6.9682e-09,1.26921e-07c-0.0227068,0.413591 0.294167,0.76728 0.707758,0.789987c8.07651e-05,4.43415e-06 0.000161531,8.85523e-06 0.000242298,1.32632e-05Z"></path>
        <path d="M14.467,11.411l1.57684e-08,5.09425e-09c0.103192,0.0333378 0.216124,-0.0033654 0.28,-0.091l-7.80727e-08,1.07135e-07c0.263292,-0.3613 0.581864,-0.67886 0.944,-0.941l7.87603e-09,-5.95595e-09c0.0627053,-0.0474186 0.0996883,-0.121385 0.1,-0.2v-0.912l5.70511e-08,-0.000855816c0,-3.54512 -2.87388,-6.419 -6.419,-6.419c-0.680015,0 -1.35571,0.108055 -2.00181,0.320123l1.88921e-08,-6.05135e-09c-0.392893,0.125848 -0.609377,0.546371 -0.483528,0.939265c0.00114904,0.00358725 0.00232519,0.00716576 0.00352836,0.0107352l-5.67279e-08,-1.67807e-07c0.131315,0.388442 0.548344,0.601393 0.94,0.48l2.73015e-07,-9.245e-08c0.495969,-0.167948 1.01637,-0.252429 1.54,-0.25l1.57899e-07,5.61862e-12c2.71869,9.67849e-05 4.92415,2.20105 4.92981,4.91973v1.906l1.48635e-09,-1.70701e-07c-0.000930628,0.106875 0.0661819,0.20252 0.167,0.238Z"></path>
        <path d="M12.245,18.138l1.50834e-08,8.31942e-09c-0.0797571,-0.0439908 -0.177169,-0.0409227 -0.254,0.00799998l2.33277e-08,-1.48082e-08c-0.782178,0.49652 -1.68954,0.760125 -2.616,0.76l-1.88528e-07,-3.43931e-10c-2.71519,-0.00495333 -4.91505,-2.20481 -4.92,-4.92v-4.719l1.16674e-08,-7.96978e-06c0.00177186,-1.20966 0.446434,-2.37681 1.25001,-3.281l2.30202e-08,-2.5003e-08c0.279065,-0.303101 0.25958,-0.77504 -0.0435217,-1.05411c-0.00214791,-0.00197758 -0.00430741,-0.00394253 -0.00647839,-0.00589475l-8.62991e-09,-7.6183e-09c-0.310109,-0.273758 -0.782764,-0.247004 -1.06,0.06l-9.70328e-08,1.07962e-07c-1.05653,1.17554 -1.64071,2.70045 -1.64,4.281v4.719l2.31702e-08,2.12529e-05c0.00386966,3.54407 2.87595,6.41613 6.42002,6.41998l1.68885e-07,1.68761e-10c0.995714,0.000994973 1.97739,-0.234826 2.864,-0.688l2.4057e-08,-1.23999e-08c0.0831673,-0.0428676 0.135587,-0.128436 0.136,-0.222v-1.13899l-3.26479e-09,-2.45047e-06c-0.000122035,-0.0912609 -0.0499627,-0.175204 -0.130029,-0.218999Z"></path>
        <path d="M9.375,5.676l1.96309e-08,-5.47313e-11c-1.97838,0.00551572 -3.57832,1.61262 -3.575,3.591v1.409l8.88178e-15,1.13247e-07c6.25445e-08,0.414214 0.335787,0.75 0.75,0.75c0.414214,-6.25445e-08 0.75,-0.335787 0.75,-0.75v-1.409l2.39808e-14,3.14071e-07c-1.73457e-07,-1.14875 0.931247,-2.08 2.08,-2.08c1.14875,-1.73457e-07 2.08,0.931247 2.08,2.08c0,0 0,3.55271e-15 0,3.55271e-15v4.719v0c0,1.14875 -0.931248,2.08 -2.08,2.08c-1.14875,0 -2.08,-0.931248 -2.08,-2.08v0c0,-0.414214 -0.335786,-0.75 -0.75,-0.75c-0.414214,0 -0.75,0.335786 -0.75,0.75l3.65803e-08,-0.000110885c-0.00068288,1.97718 1.60158,3.58055 3.57876,3.58124c1.19182,0.000411632 2.3057,-0.592309 2.97117,-1.58103l-6.28984e-09,9.45685e-09c0.0251403,-0.0377987 0.0396473,-0.0816653 0.042,-0.127l1.97783e-08,-4.7515e-07c0.0175871,-0.422507 0.180012,-0.826097 0.46,-1.143l-4.25996e-09,4.52787e-09c0.0329518,-0.0350241 0.0542596,-0.0793861 0.061,-0.127l6.4314e-09,-4.09752e-08c0.0311537,-0.198484 0.0468674,-0.399085 0.047,-0.599999v-4.72209l1.06223e-07,-6.38077e-05c0.00327847,-1.97994 -1.59912,-3.58765 -3.57906,-3.59093c-0.00198114,-3.28046e-06 -0.00396228,-4.91869e-06 -0.00594342,-4.91469e-06Z"></path>
        <path d="M10.125,13.514v-2.833v0c0,-0.414214 -0.335786,-0.75 -0.75,-0.75c-0.414214,0 -0.75,0.335786 -0.75,0.75v2.833l8.88178e-15,1.13247e-07c6.25445e-08,0.414214 0.335787,0.75 0.75,0.75c0.414214,-6.25445e-08 0.75,-0.335787 0.75,-0.75Z"></path>
        <path d="M22.589,15.5l-1.54736e-08,-2.25162e-09c-0.123099,-0.0179126 -0.214301,-0.123605 -0.214,-0.248v-1.016v0c0,-1.933 -1.567,-3.5 -3.5,-3.5c-1.933,0 -3.5,1.567 -3.5,3.5v1.018l3.03528e-09,1.25457e-06c0.000300647,0.124395 -0.0909021,0.230087 -0.214001,0.247999l3.47912e-09,-5.01483e-10c-0.737884,0.106359 -1.28567,0.73849 -1.286,1.484v5.5l1.77636e-14,2.26494e-07c1.25089e-07,0.828427 0.671573,1.5 1.5,1.5h7h-6.55671e-08c0.828427,3.62117e-08 1.5,-0.671573 1.5,-1.5v-5.5l6.576e-08,-7.55083e-05c0.000631141,-0.746269 -0.547433,-1.3795 -1.28607,-1.48594Zm-3.714,5.734h-4.37114e-08c-0.552285,-2.41411e-08 -1,-0.447715 -1,-1c2.41411e-08,-0.552285 0.447715,-1 1,-1c0.552285,2.41411e-08 1,0.447715 1,1l3.29613e-08,1.65495e-05c0.00109541,0.552284 -0.445731,1.00089 -0.998015,1.00198c-0.000667318,1.32357e-06 -0.00133464,1.97916e-06 -0.00200196,1.96678e-06Zm1.5,-6l-2.30624e-09,-5.72931e-07c0.000553715,0.137518 -0.110478,0.249447 -0.247995,0.250001c-0.000668008,2.68973e-06 -0.00133602,2.69127e-06 -0.00200403,4.61117e-09h-2.5l1.27979e-08,-5.15019e-11c-0.137518,0.000553405 -0.249447,-0.110478 -0.25,-0.247996c-2.68823e-06,-0.000668008 -2.68826e-06,-0.00133602 -1.03004e-10,-0.00200403v-1l1.77636e-14,2.26494e-07c-1.25089e-07,-0.828427 0.671573,-1.5 1.5,-1.5c0.828427,-1.25089e-07 1.5,0.671573 1.5,1.5c0,0 0,1.77636e-15 0,1.77636e-15Z"></path>
    </g>
</svg>