<svg id="grav-logo-small" class="grav-logo" width="100%" height="100%" viewBox="0 0 91 103" version="1.1" xmlns="http://www.w3.org/2000/svg" xmlns:xlink="http://www.w3.org/1999/xlink" xml:space="preserve" xmlns:serif="http://www.serif.com/" style="fill-rule:evenodd;clip-rule:evenodd;stroke-linejoin:round;stroke-miterlimit:1.41421;"><g transform="matrix(1,0,0,1,-411.231,-328.021)"><path d="M498.522,382.22L487.883,382.22C486.266,382.22 484.953,383.536 484.953,385.158L484.953,405.594L484.744,405.77C478.482,411.052 470.564,413.956 462.45,413.956C443.311,413.956 427.739,398.384 427.739,379.241C427.739,360.097 443.311,344.527 462.45,344.527C469.893,344.527 477.01,346.883 483.034,351.344C484.203,352.21 485.825,352.091 486.856,351.064L494.441,343.477C495.034,342.888 495.342,342.07 495.294,341.235C495.248,340.4 494.847,339.627 494.189,339.106C485.176,331.956 473.905,328.021 462.45,328.021C434.21,328.021 411.232,350.998 411.232,379.241C411.232,407.485 434.21,430.46 462.45,430.46C477.032,430.46 490.979,424.187 500.713,413.242C501.191,412.705 501.455,412.014 501.455,411.295L501.455,385.158C501.455,383.536 500.142,382.22 498.522,382.22" style="fill-rule:nonzero;"/></g></svg>
