<svg xmlns="http://www.w3.org/2000/svg" width="100%" height="100%" viewBox="0 0 301 301" fill-rule="nonzero" stroke-linejoin="round" stroke-miterlimit="1.41421"><path d="M159.5 112.4c1.76-1.76 1.76-4.612 0-6.37a4.5 4.5 0 1 0-6.369 6.369 4.51 4.51 0 0 0 6.37 0m-15.9 3.14a4.5 4.5 0 0 0 0 6.369c1.757 1.76 4.6 1.76 6.37 0s1.757-4.612 0-6.37-4.612-1.76-6.37 0m27.634 2.342a7.05 7.05 0 0 0-9.966 0l-5.863 5.862a7.05 7.05 0 0 0 0 9.968l6.437 6.437c2.752 2.754 7.215 2.752 9.966 0l5.862-5.862a7.05 7.05 0 0 0 0-9.969l-6.435-6.435zm35.725-27.64c-4.647-5.57 4.04-15.685 9.5-9.645 10.04 11.127-4.836 15.217-9.5 9.645m19.982 5.808c7.44-14.164-3.083-22.438-10.316-29.23-11.584-10.9-23.138-15.597-36.335-.52s-4.8 32.568 7.254 41.198 31.95 2.712 39.397-11.45m4.734 79.62c-15.68-10.363-24.64-19.118-32.443-34.818-5.34 10.757-17.8 26.75-38.823 39.332-10.494 32.65-60.417 95.13-76.575 86.274-4.784-2.62-5.7-6.07-4.612-9.632 1.16-8.924 19.622-29.438 19.622-29.438s.4 4.305 6.296 13.372c-7.802-24.218 12.892-54.102 18.37-64.274 8.613-2.744 9.237-13.805 9.237-13.805.55-17.094-7.084-29.47-14.484-36.872 5.317 6.5 7.038 16.295 7.3 25.275v.05a103.83 103.83 0 0 1 .023 3.004c-.253 7.434-2.5 17.703-7.312 17.703l.013.065c-4.946-.212-11.054.843-16.5 2.55l-12.064 2.882s6.434-.293 9.908 2.707c-3.87 6.3-12.47 14.12-22.06 18.56-13.955 6.473-17.966-6.405-10.88-14.78a45.72 45.72 0 0 1 5.158-5.186c-1.07-1.107-1.744-2.6-1.92-4.47-.002-.01-.008-.02-.01-.028-.973-4.273-.436-9.82 5.6-18.637 1.193-1.866 2.624-3.78 4.338-5.722.055-.066.1-.128.157-.193.073-.1.156-.173.232-.26l.13-.148a21.8 21.8 0 0 1 1.38-1.433c7.205-7.38 18.585-15.054 36.518-21.942 20.913-30.74 28.572-36.505 28.572-36.505 2.315-2.368 6.36-5.312 7.85-6.063-10.92-18.977-13.127-45.73-10.264-52.938a10.5 10.5 0 0 0-.622 1.2c1.06-2.47 1.77-3.26 2.872-4.562 2.983-3.527 13.1-5.377 16.72 2.098 1.935 3.986 2.3 9.147 2.235 13.018-8.005-.417-15.267 8.723-15.267 8.723s6.632-3.128 14.87-3.184c0 0 2.193 1.9 4.933 5.495-3.698 6.944-9.776 21.66-5.375 37.105.73 3.044 1.833 5.66 3.205 7.886l.148.3c.1.144.2.264.313.397 7.278 10.96 20.624 12.244 20.624 12.244-6.28-3.135-11.4-8.126-14.732-14.18-1.73-3.237-2.8-5.97-3.44-8.128-3.535-13.646 1.666-21.613 4.644-26.954 6.852-10.627 19.332-17.06 32.748-15.53 18.828 2.15 32.35 19.154 30.2 37.977-1.313 11.5-8.172 21.013-17.598 26.2 2.268 6.136-.156 13.573-.156 13.573 5.708 7.18 5.96 11.32 5.763 15.166-7.256-1.22-14.304 3.676-14.304 3.676s13.996-3.34 22.13 3.9c5.288 5.687 8.814 10.827 10.916 14.623 3 5.414 16.988 5.8 15.395 15.538-1.6 9.723-12.252 9.815-28.964-1.2M150.366.663C67.32.663-.002 67.984-.002 151.022c0 83.045 67.32 150.372 150.367 150.372 83.04 0 150.363-67.327 150.363-150.372 0-83.038-67.323-150.36-150.363-150.36" /><path d="M39.868 165.318H29.23c-1.617 0-2.93 1.316-2.93 2.938v20.436l-.2.176c-6.262 5.282-14.18 8.186-22.294 8.186-19.14 0-34.7-15.572-34.7-34.715s15.572-34.714 34.7-34.714c7.443 0 14.56 2.356 20.584 6.817 1.17.866 2.8.747 3.822-.28l7.585-7.587a2.94 2.94 0 0 0 .853-2.242c-.047-.835-.447-1.608-1.105-2.13-9.013-7.15-20.284-11.085-31.74-11.085-28.24 0-51.218 22.977-51.218 51.22s22.978 51.22 51.218 51.22c14.582 0 28.53-6.273 38.263-17.218.478-.537.742-1.228.742-1.947v-26.137c0-1.622-1.313-2.938-2.933-2.938m355.953-49.5a2.95 2.95 0 0 0-2.45-1.32H381.8c-1.172 0-2.23.696-2.696 1.772l-32.644 75.786-33.227-75.803a2.94 2.94 0 0 0-2.683-1.755h-11.617a2.93 2.93 0 0 0-2.458 1.327c-.543.83-.634 1.877-.232 2.786l40.248 91.8c.47 1.065 1.524 1.756 2.7 1.756h14.656c1.172 0 2.23-.702 2.695-1.772l39.54-91.815c.385-.906.295-1.948-.243-2.774m-152.17.446a2.94 2.94 0 0 0-2.689-1.755h-14.65c-1.172 0-2.23.696-2.695 1.772l-39.54 91.815a2.92 2.92 0 0 0 .243 2.769 2.93 2.93 0 0 0 2.451 1.325h11.578c1.172 0 2.23-.702 2.696-1.773l32.638-75.8 33.227 75.806a2.94 2.94 0 0 0 2.683 1.756h11.623a2.93 2.93 0 0 0 2.457-1.325 2.95 2.95 0 0 0 .233-2.791l-40.254-91.8zM137.688 178.6l.635-.306c11.566-5.588 19.04-17.45 19.04-30.222 0-18.508-15.06-33.565-33.568-33.565H81.3c-1.62 0-2.933 1.317-2.933 2.936v91.806c0 1.625 1.314 2.94 2.933 2.94h10.638c1.62 0 2.933-1.314 2.933-2.94V131h28.913c9.4 0 17.065 7.65 17.065 17.06 0 7.847-5.328 14.652-12.97 16.544a16.72 16.72 0 0 1-4.094.524h-10.637a2.92 2.92 0 0 0-2.361 4.668l30.16 41.18a2.92 2.92 0 0 0 2.361 1.201h13.22a2.93 2.93 0 0 0 2.365-4.671L137.688 178.6z" transform="matrix(.466421 0 0 .466421 69.138603 74.781799)" fill="#fff"/></svg>
